<svg version="1.1" id="Capa_1" xmlns="http://www.w3.org/2000/svg" xmlns:xlink="http://www.w3.org/1999/xlink" x="0" y="0" viewBox="0 0 46.5 48" xml:space="preserve"><style>.st0{display:none}.st1{opacity:.7}.st1,.st3{display:inline}.st5{fill:#fff}</style><g id="EUROMILLONES-NOSELECIONADO" class="st0"><ellipse cx="22.8" cy="24.3" rx="20.9" ry="21.3" fill="#2c3963"/><g class="st3"><defs><ellipse id="SVGID_1_" cx="23.3" cy="27.9" rx="6.1" ry="6.6"/></defs><clipPath id="SVGID_2_"><use xlink:href="#SVGID_1_" overflow="visible"/></clipPath><path d="M29.4 27.6v-.4c0-.2 0-.3-.1-.5 0-.3-.1-.6-.2-.9s-.2-.5-.3-.8c-.2-.5-.4-.9-.7-1.3-.1-.2-.2-.3-.4-.5 0-.1-.1-.1-.1-.1V23s0-.1-.1-.1c-.2-.2-.3-.4-.5-.6s-.4-.3-.6-.5c-.1 0-.1-.1-.2-.1s-.1-.1-.2-.1-.1-.1-.2-.1h-.5c-.1 0-.1 0-.2-.1-.2-.1-.4-.1-.6-.2-.4-.1-.9-.2-1.4-.2s-.9.1-1.4.2c-.2.1-.5.1-.7.2l-.6.3c-.4.2-.8.5-1.2.9-.4.3-.7.7-1 1.1-.1.1-.1.2-.2.3 0 .1-.1.1-.1.2v.4c0 .1-.1.1-.1.2s-.1.1-.1.2c-.2.5-.4 1-.5 1.5 0 .1 0 .3-.1.4V28.1c0 .5.1 1 .2 1.5a7.01 7.01 0 002.2 3.9l.1.1h.1l.1.1c.1 0 .1.1.1.1l.6.3c.4.2.9.4 1.3.4.2 0 .4.1.7.1h.7c.9 0 1.7-.3 2.4-.6.7-.4 1.4-.9 1.9-1.4l.4-.4.1-.1.1-.1v-.1s0-.1.1-.1l.1-.1V31.4s0-.1.1-.1c.1-.2.2-.3.2-.5.1-.2.1-.3.2-.5s.1-.3.2-.5c0-.2.1-.3.1-.5s.1-.3.1-.5c.2-.5.3-.8.2-1.2zm-2.6-1.7c0 1.7-1.3 3.2-2.9 3.2S21 27.6 21 25.9c0-1.4.8-2.6 2-3 .2-.1.5-.1.8-.1 1.7-.1 3 1.3 3 3.1zm1.2 2.8c0 .3-.1.5-.2.8 0 .1-.1.3-.1.4-.1.1-.1.3-.2.4s-.1.3-.2.4c0 0 0 .1-.1.1 0 0 0 .1-.1.1l-.1.1s0 .1-.1.1c0 0 0 .1-.1.1l-.3.3c-.2.2-.5.4-.7.6a3.72 3.72 0 01-2.6.6c-.6 0-1.2-.2-1.8-.5-.1-.1-.3-.2-.4-.3l-.1-.1h-.1l-.1-.1c-.3-.2-.5-.5-.7-.7l-.6-.9c-.1-.2-.2-.3-.2-.5-.1-.2-.1-.3-.2-.5-.1-.4-.2-.7-.2-1.1v-.6-.6c.1-.4.1-.7.3-1.1 0 0 0-.1.1-.1 0 0 0-.1.1-.1v-.4l.1-.1c.1-.1.1-.2.2-.2.4-.6.9-1 1.4-1.4v.1l-.1.1-.1.1c-.1.1-.1.2-.2.3-.1.1-.1.2-.2.4 0 .1-.1.3-.1.4-.2.5-.2 1.2-.1 1.8.1.6.3 1.3.7 2 0 .1.1.2.1.2l.1.1v.1l.1.1.1.1.1.1.4.4c.2.1.3.2.5.3.4.2.8.3 1.2.4.2 0 .4.1.6 0h.5c.2 0 .4-.1.6-.2.1 0 .2-.1.3-.1.1 0 .2-.1.3-.2.4-.2.7-.5 1-.8s.6-.7.8-1.2v-.4c.4.5.4.9.4 1.2z" clip-path="url(#SVGID_2_)" fill="#fff"/></g><g class="st3"><path class="st5" d="M33.2 34.9h-2.6s-.1 0-.1-.1v-1.4s0-.1.1-.1h1.2s.1 0 .1-.1V15.6s0-.1-.1-.1H14.6s-.1 0-.1.1v17.7s0 .1.1.1h1.1s.1 0 .1.1v1.4s0 .1-.1.1h-2.6s-.1 0-.1-.1V14s0-.1.1-.1h20.1s.1 0 .1.1l-.1 20.9z"/></g><g class="st3"><defs><ellipse id="SVGID_3_" cx="23.1" cy="24.3" rx="20.6" ry="21.3"/></defs><clipPath id="SVGID_4_"><use xlink:href="#SVGID_3_" overflow="visible"/></clipPath><path opacity=".7" clip-path="url(#SVGID_4_)" fill="#2c3963" d="M33.3 14l13.9 17.9-3.6 17.2-7.9-1-9.2 1-13.3-14.2h20.1z"/></g></g><g class="st0"><ellipse cx="23.2" cy="24.6" rx="21.3" ry="20.9" fill="#008341" opacity=".71"/><g class="st3"><defs><ellipse id="SVGID_5_" cx="23.2" cy="24.6" rx="21.3" ry="20.9"/></defs><clipPath id="SVGID_6_"><use xlink:href="#SVGID_5_" overflow="visible"/></clipPath><path opacity=".72" clip-path="url(#SVGID_6_)" fill="#008a3f" d="M34.3 14.3l12.9 13.4v17.8l-10.6.8-11.9 1.3-12.5-12.1h22.1z"/></g><g class="st3"><path class="st5" d="M34.3 35.5h-3V34h1.4V15.9H13.8V34h1.3v1.5h-2.9V14.3h22.1z"/><path class="st5" d="M30.1 29.3c0-.3.1-.6.1-.9s0-.6-.1-.9c-2.1-.2-4.3-.3-6.8-.3-2.8 0-5.3.2-6.9.3 0 .3-.1.6-.1.9s0 .6.1 1c1.5.1 3.9.3 6.9.3 2.2-.1 4.6-.2 6.8-.4zM28.6 32.5c.5-.6.9-1.4 1.2-2.1-2.1.2-4.4.2-6.5.2-2.8 0-5.1-.1-6.7-.2.3.8.7 1.5 1.2 2.1 1.5.3 3.4.5 5.5.5 1.7 0 3.5-.1 5.3-.5zM17.8 24.3c-.5.6-.9 1.4-1.2 2.1 1.7-.1 4.1-.3 6.7-.3 2.3 0 4.5.1 6.5.3-.3-.8-.7-1.5-1.2-2.1-1.5-.3-3.4-.6-5.3-.6-1.7 0-3.6.2-5.5.6zM23.3 22.7c1.4 0 2.7.1 3.9.3-1.1-.8-2.5-1.2-4-1.2s-2.9.5-4 1.2c1.4-.2 2.8-.3 4.1-.3zM23.3 34.1c-1.5 0-2.8-.1-4-.3 1.1.8 2.5 1.2 4 1.2s2.8-.4 4-1.2c-1.4.2-2.7.3-4 .3z"/></g></g><g class="st0"><circle cx="23.3" cy="23.9" r="20.7" fill="#678432"/><g class="st3"><defs><path id="SVGID_7_" d="M23.1 44.6h.4c11.3 0 20.5-9.2 20.5-20.5v-.4c0-11.3-9.2-20.5-20.5-20.5h-.4c-11.3 0-20.5 9.2-20.5 20.5v.4c0 11.2 9.2 20.5 20.5 20.5z"/></defs><clipPath id="SVGID_8_"><use xlink:href="#SVGID_7_" overflow="visible"/></clipPath><path clip-path="url(#SVGID_8_)" fill="#678432" d="M44 47l-20.2 1.8L44 47V25.4L33.1 13.5V34H11.9l10.6 12.5"/><g><defs><path id="SVGID_9_" d="M23.1 44.6h.4c11.3 0 20.5-9.2 20.5-20.5v-.4c0-11.3-9.2-20.5-20.5-20.5h-.4c-11.3 0-20.5 9.2-20.5 20.5v.4c0 11.2 9.2 20.5 20.5 20.5z"/></defs><clipPath id="SVGID_10_"><use xlink:href="#SVGID_9_" overflow="visible"/></clipPath></g></g><g class="st3"><path class="st5" d="M33.1 34h-2.9v-1.5h1.4V15H13.4v17.5h1.3V34h-2.8V13.5h21.2z"/><path class="st5" d="M17.6 25.9c-1.2-1.1-1.4-2.7-.3-3.9 1.2-1.1 2.8-.9 4 .2 1.4 1.4 0 3.6.6 4.2 0 0 0 .1-.1.1-.5-.6-2.7.8-4.2-.6zM27.4 25.9c1.2-1.1 1.4-2.7.3-3.9s-2.8-.9-4 .2c-1.4 1.4 0 3.6-.6 4.2 0 0 0 .1.1.1.4-.6 2.7.8 4.2-.6zM17.6 27.8c-1.2 1.1-1.4 2.7-.3 3.9 1.2 1.1 2.8.9 4-.2 1.4-1.4 0-3.6.6-4.2 0 0 0-.1-.1-.1-.5.6-2.7-.8-4.2.6zM27.4 27.8c1.2 1.1 1.4 2.7.3 3.9s-2.8.9-4-.2c-1.4-1.4 0-3.6-.6-4.2 0 0 0-.1.1-.1.4.6 2.7-.8 4.2.6zM21.5 36c-.2 0-.3 0-.4-.1-.3-.2-.4-.7-.1-1 .8-.9.9-2.1.8-2.9 0-.4.3-.7.7-.7.4 0 .7.3.7.7.1 1.5-.3 2.8-1.1 3.8-.2.2-.4.2-.6.2z"/></g></g><g id="GORDO-NOSELECCIONADO"><circle cx="22.9" cy="24.2" r="20.7" fill="#dc3f47"/><defs><circle id="SVGID_11_" cx="22.9" cy="24.2" r="20.7"/></defs><clipPath id="SVGID_12_"><use xlink:href="#SVGID_11_" overflow="visible"/></clipPath><g clip-path="url(#SVGID_12_)"><path class="st5" d="M33.5 34.3h-2.9v-1.5H32V15.3H13.8v17.5h1.3v1.5h-2.8V13.8h21.2z"/><path class="st5" d="M29.4 28.3c0-.3.1-.6.1-.9s0-.6-.1-.9c-2-.1-4.1-.3-6.5-.3-2.6 0-5 .2-6.6.3 0 .3-.1.6-.1.9s0 .6.1.9c1.4.1 3.7.3 6.6.3 2.2-.1 4.4-.1 6.5-.3zM28 31.4c.5-.6.9-1.3 1.2-2.1-2.1.2-4.2.2-6.2.2-2.7 0-4.9-.1-6.4-.2.3.8.6 1.5 1.2 2.1 1.4.3 3.2.5 5.2.5 1.6 0 3.3-.2 5-.5zM17.7 23.4c-.5.6-.9 1.3-1.1 2.1 1.6-.1 3.9-.3 6.4-.3 2.2 0 4.3.1 6.2.3-.2-.8-.6-1.5-1.1-2.1-1.4-.3-3.2-.5-5.1-.5-1.7 0-3.5.1-5.3.5zM23 21.9c1.3 0 2.6.1 3.8.3-1.1-.7-2.4-1.2-3.8-1.2s-2.8.4-3.8 1.2c1.2-.2 2.5-.3 3.8-.3zM23 32.9c-1.4 0-2.7-.1-3.9-.3 1.1.7 2.4 1.2 3.8 1.2s2.7-.4 3.8-1.2c-1.3.2-2.5.3-3.7.3z"/></g></g></svg>