<svg version="1.1" id="Capa_1" xmlns="http://www.w3.org/2000/svg" xmlns:xlink="http://www.w3.org/1999/xlink" x="0" y="0" viewBox="0 0 46.5 48" xml:space="preserve"><g id="EUROMILLONES-NOSELECIONADO"><ellipse cx="22.8" cy="24.3" rx="20.9" ry="21.3" fill="#153f69"/><defs><ellipse id="SVGID_1_" cx="23.3" cy="27.9" rx="6.1" ry="6.6"/></defs><clipPath id="SVGID_2_"><use xlink:href="#SVGID_1_" overflow="visible"/></clipPath><path d="M29.4 27.6v-.4c0-.2 0-.3-.1-.5 0-.3-.1-.6-.2-.9s-.2-.5-.3-.8c-.2-.5-.4-.9-.7-1.3-.1-.2-.2-.3-.4-.5 0-.1-.1-.1-.1-.1V23s0-.1-.1-.1c-.2-.2-.3-.4-.5-.6s-.4-.3-.6-.5c-.1 0-.1-.1-.2-.1s-.1-.1-.2-.1-.1-.1-.2-.1h-.5c-.1 0-.1 0-.2-.1-.2-.1-.4-.1-.6-.2-.4-.1-.9-.2-1.4-.2s-.9.1-1.4.2c-.2.1-.5.1-.7.2l-.6.3c-.4.2-.8.5-1.2.9-.4.3-.7.7-1 1.1-.1.1-.1.2-.2.3 0 .1-.1.1-.1.2v.4c0 .1-.1.1-.1.2s-.1.1-.1.2c-.2.5-.4 1-.5 1.5 0 .1 0 .3-.1.4V28.1c0 .5.1 1 .2 1.5a7.01 7.01 0 002.2 3.9l.1.1h.1l.1.1c.1 0 .1.1.1.1l.6.3c.4.2.9.4 1.3.4.2 0 .4.1.7.1h.7c.9 0 1.7-.3 2.4-.6.7-.4 1.4-.9 1.9-1.4l.4-.4.1-.1.1-.1v-.1s0-.1.1-.1l.1-.1V31.4s0-.1.1-.1c.1-.2.2-.3.2-.5.1-.2.1-.3.2-.5s.1-.3.2-.5c0-.2.1-.3.1-.5s.1-.3.1-.5c.2-.5.3-.8.2-1.2zm-2.6-1.7c0 1.7-1.3 3.2-2.9 3.2S21 27.6 21 25.9c0-1.4.8-2.6 2-3 .2-.1.5-.1.8-.1 1.7-.1 3 1.3 3 3.1zm1.2 2.8c0 .3-.1.5-.2.8 0 .1-.1.3-.1.4-.1.1-.1.3-.2.4s-.1.3-.2.4c0 0 0 .1-.1.1 0 0 0 .1-.1.1l-.1.1s0 .1-.1.1c0 0 0 .1-.1.1l-.3.3c-.2.2-.5.4-.7.6a3.72 3.72 0 01-2.6.6c-.6 0-1.2-.2-1.8-.5-.1-.1-.3-.2-.4-.3l-.1-.1h-.1l-.1-.1c-.3-.2-.5-.5-.7-.7l-.6-.9c-.1-.2-.2-.3-.2-.5-.1-.2-.1-.3-.2-.5-.1-.4-.2-.7-.2-1.1v-.6-.6c.1-.4.1-.7.3-1.1 0 0 0-.1.1-.1 0 0 0-.1.1-.1v-.4l.1-.1c.1-.1.1-.2.2-.2.4-.6.9-1 1.4-1.4v.1l-.1.1-.1.1c-.1.1-.1.2-.2.3-.1.1-.1.2-.2.4 0 .1-.1.3-.1.4-.2.5-.2 1.2-.1 1.8.1.6.3 1.3.7 2 0 .1.1.2.1.2l.1.1v.1l.1.1.1.1.1.1.4.4c.2.1.3.2.5.3.4.2.8.3 1.2.4.2 0 .4.1.6 0h.5c.2 0 .4-.1.6-.2.1 0 .2-.1.3-.1.1 0 .2-.1.3-.2.4-.2.7-.5 1-.8s.6-.7.8-1.2v-.4c.4.5.4.9.4 1.2z" clip-path="url(#SVGID_2_)" fill="#fff"/><g><path d="M33.2 34.1h-2.6s-.1 0-.1-.1v-1.3s0-.1.1-.1h1.2s.1 0 .1-.1v-17s0-.1-.1-.1H14.6s-.1 0-.1.1v17s0 .1.1.1h1.1s.1 0 .1.1V34s0 .1-.1.1h-2.6s-.1 0-.1-.1V14s0-.1.1-.1h20.1s.1 0 .1.1l-.1 20.1z" fill="#fff"/></g></g></svg>